{
    "asset" : {
        "generator" : "Khronos glTF Blender I/O v3.3.27",
        "version" : "2.0"
    },
    "scene" : 0,
    "scenes" : [
        {
            "name" : "Scene",
            "nodes" : [
                0
            ]
        }
    ],
    "nodes" : [
        {
            "mesh" : 0,
            "name" : "b"
        }
    ],
    "meshes" : [
        {
            "name" : "BagaPie_StairLinear",
            "primitives" : [
                {
                    "attributes" : {
                        "POSITION" : 0,
                        "NORMAL" : 1
                    },
                    "indices" : 2
                }
            ]
        }
    ],
    "accessors" : [
        {
            "bufferView" : 0,
            "componentType" : 5126,
            "count" : 1424,
            "max" : [
                0.5,
                3.3164947032928467,
                3.511310577392578
            ],
            "min" : [
                -0.5,
                0,
                -0.01131056621670723
            ],
            "type" : "VEC3"
        },
        {
            "bufferView" : 1,
            "componentType" : 5126,
            "count" : 1424,
            "type" : "VEC3"
        },
        {
            "bufferView" : 2,
            "componentType" : 5123,
            "count" : 4272,
            "type" : "SCALAR"
        }
    ],
    "bufferViews" : [
        {
            "buffer" : 0,
            "byteLength" : 17088,
            "byteOffset" : 0,
            "target" : 34962
        },
        {
            "buffer" : 0,
            "byteLength" : 17088,
            "byteOffset" : 17088,
            "target" : 34962
        },
        {
            "buffer" : 0,
            "byteLength" : 8544,
            "byteOffset" : 34176,
            "target" : 34963
        }
    ],
    "buffers" : [
        {
            "byteLength" : 42720,
            "uri" : "data:application/octet-stream;base64,"
        }
    ]
}
